<svg xmlns="http://www.w3.org/2000/svg" viewBox="0 0 369 153">
    <path fill="#fff" d="M119.86 11.43C127 9 127.6 0 120.5 0c-2 0-4.28 1.37-5.88 4.17l-9.58 16.56a13.91 13.91 0 0 1-1.37 2c-2.47-3.38-1.75-8.45 1.7-10.67l-1.4-1.8C96.5 15 98.7 28.73 111.15 28.73c10.6 0 15.52-12.74 8.68-17.3zM111.07 26a10.26 10.26 0 0 1-5.13-1.23 18.49 18.49 0 0 0 1.77-2.53l6-10.37 1 .1c8.3 1.75 5 14.03-3.64 14.03zm3.83-16.2l2.87-4.93c2.6-4.48 5.92-1.85 4.14 1.5-1.37 2.57-3.4 3.36-7 3.43zM259.2 19l-.24.28a16.76 16.76 0 0 1-6.5 5c.58-.92 1-1.9 1.47-2.67l3.94-6.74c3.32-5.64-2.06-7.52-5.68-4.27l.72-1.23h-3.56L243.8 19l-.24.27a7.66 7.66 0 0 1-5.37 2.63l3.35-5.78c2.16-3.73.18-7.25-3.18-7.25-2.74 0-4.86 1.1-6.9 4.65l-1.74 3.05-1.47 2.43-.2.22c-2.56 3-5.06 5.34-6.63 5.34-.8 0-1.24-.55-.42-1.95l5.14-9c1.54-2.7.07-4.65-1.92-4.65-1.54 0-3.18.85-5 2.7l5.68-9.9h-3.56L211.45 19l-.2.23A22 22 0 0 1 207 23.1c1.13-3.4.9-8.6 3.08-13.14l-2.67-1.44c-1.47 2-4.7 6.67-7.9 10.44l-.24.27c-2.57 3-5.07 5.34-6.64 5.34-.8 0-1.23-.55-.4-1.95l3.56-6.23c1.23-2.16.65-3.42-.52-4.82l-2-2.4a1.39 1.39 0 0 1 .2-2l-1.84-2c-2 1.8-2.2 3.83-.93 5.47l.3.36c-1.57 2.23-3.7 5.24-6 8l-.24.27c-2.56 3-5.85 5.34-8.35 5.34-2.2 0-3.5-1.37-1.84-4.24l.34-.62c2.3 1 6.6.5 9.27-4.1l.5-.9c1.92-3.28.07-5.74-2.84-5.74a7.53 7.53 0 0 0-6.67 4.1L171.7 19l-.2.24a7.63 7.63 0 0 1-5.37 2.64l3.35-5.8a8.66 8.66 0 0 0 1.34-4.09 3 3 0 0 0-3.22-3.18 4.16 4.16 0 0 0-2.33.79l4.52-7.84h-3.63L156.18 19l-.2.2c-2.57 3-5.06 5.34-6.64 5.34-.78 0-1.23-.55-.4-1.95l3.56-6.23c1.23-2.15.65-3.42-.5-4.82l-2-2.4a1.39 1.39 0 0 1 .21-2l-1.85-2c-2 1.8-2.2 3.83-.92 5.48l.3.4c-1.58 2.22-3.7 5.23-6 8l-.24.27c-2.57 3-5.07 5.34-6.64 5.34-.8 0-1.23-.55-.4-1.95l5.75-10.06h-2A3.7 3.7 0 0 0 134.44 9c-1.92 0-4.6 1.5-6.1 4.1l-5 8.62c-1.5 2.64-.44 5.07 2.43 5.07 1.44 0 3.22-.93 4.93-2.33.17 1.37 1.27 2.33 3.08 2.33 2.94 0 6.33-3.15 9.27-6.57 1.7-2 3.05-3.76 5.9-7.63l.47.58a1.74 1.74 0 0 1 .21 2l-3.76 6.53c-1.5 2.64-.45 5.07 2.42 5.07 2.07 0 4.35-1.55 6.54-3.65 0 2.43 1.8 3.8 4.1 3.8a7.87 7.87 0 0 0 6.06-3.31 6.87 6.87 0 0 0 .79 0 10.4 10.4 0 0 0 4.72-1.4c-.18 2.57 1.68 4.52 4.82 4.52 4 0 8-3.15 11-6.57 1.7-2 3-3.76 5.88-7.63l.48.58a1.76 1.76 0 0 1 .2 2l-3.76 6.54c-1.5 2.63-.44 5.06 2.43 5.06s6.33-3.15 9.27-6.57c2-2.32 3.8-4.82 5.06-6.5-1.4 3.7-.65 10.33-4 10.33a2 2 0 0 1-1.68-1.3l-2.2 1.17a3.88 3.88 0 0 0 3.9 2.87 8.24 8.24 0 0 0 1-.07h.1a12.67 12.67 0 0 0 5.47-2.36l-1.23 2.12h3.6l5.4-9.4c5.48-6.87 7.9-6 6.36-3.35l-4.6 8c-1.5 2.63-.45 5.06 2.43 5.06 2.06 0 4.35-1.55 6.55-3.66 0 4.53 6.3 5.42 10.14.55h.8a10 10 0 0 0 3.81-.94L235.16 34h3.6l10.64-18.5c4-5.4 6.47-3.42 5.55-1.82l-5.37 9.3c-.6 1-1.92 1.34-2.57 0l-2 1a3.88 3.88 0 0 0 3.9 2.87h.2c5.16-.1 8.55-3.18 11.46-6.57a2.29 2.29 0 0 0-1.36-1.28zm-81-5c2.06-3.53 5.68-2.94 3.56.75l-.5.9c-1.7 2.9-4 2.84-5.34 2.36zm-45.6 5.6c-2.16 3.4-4.28 5-5.75 5-.8 0-1.23-.54-.4-1.94l5-8.66c1.92-3.32 5.7-2.46 4 .75zm26.8 4.86a1.33 1.33 0 0 1-1.44-1.37 3.93 3.93 0 0 1 .62-1.85l1.24-2.25a5.26 5.26 0 0 0 2.26 3.7 3.34 3.34 0 0 1-2.7 1.73zm3.7-3.47a3.84 3.84 0 0 1-1.5-3.21c0-2.54 2.46-6.68 4.48-6.68a1.36 1.36 0 0 1 1.34 1.54 4.37 4.37 0 0 1-.69 2.13zm73.08-1.78H236a2.1 2.1 0 0 0-2.08 2.12 2.28 2.28 0 0 0 .34 1.2v.07c-1.67 2.87-5.74 2.33-3.62-1.37l2.7-4.7 1.7-2.9c2.5-4.25 5.92-2.57 3.77 1.13zM.003 73.264l5.714-5.712 5.712 5.714-5.714 5.712zm352 .022l5.714-5.712 5.712 5.714L357.726 79z"/>
    <path fill="#636466" d="M46.8 73.48h2.08v-8.32h3.27v-2.1H46.8v10.4zM61.7 75V62.32a4.59 4.59 0 0 0-2.56-4.07 4.46 4.46 0 0 1 .48 2v12.68A4.5 4.5 0 0 1 58 76.44a5.19 5.19 0 0 1 1.66 3.69v14.1a4.63 4.63 0 0 1-4.56 4.55H41.5v2.1h15.64a4.63 4.63 0 0 0 4.56-4.56V82.2a5.21 5.21 0 0 0-1.7-3.68A4.46 4.46 0 0 0 61.69 75zM46.8 91.34h2.08v-8.4h3.27v-2.08H46.8v10.47zm33 0h2.08V65.16h3.27v-2.1H79.8v28.27zm12.34-33.1a4.46 4.46 0 0 1 .48 2v34a4.62 4.62 0 0 1-4.56 4.56H77a4.43 4.43 0 0 1-2-.48 4.57 4.57 0 0 0 4.07 2.56h11.08a4.62 4.62 0 0 0 4.55-4.55v-34a4.59 4.59 0 0 0-2.56-4.09zm20.68 15.23h2.08v-8.32h3.28v-2.1h-5.36v10.4zm12.25 9.04a4.46 4.46 0 0 0 2.58-4.06V62.32a4.55 4.55 0 0 0-2.56-4.09 4.62 4.62 0 0 1 .48 2v16.14a4.48 4.48 0 0 1-2.57 4.07l3.08 18.35h-5.68l.35 2.08h7.4zm-9.42-1.65h-2.83V98.8h-5.3v2.1h7.4V82.95h1.1l-.35-2.08zm29.2 10.48h2.1V65.16h3.27v-2.1h-5.36v28.27zm12.34-33.1a4.46 4.46 0 0 1 .48 2v34a4.63 4.63 0 0 1-4.56 4.56H142a4.42 4.42 0 0 1-2-.48 4.54 4.54 0 0 0 4.07 2.56h11.08a4.62 4.62 0 0 0 4.56-4.55v-34a4.59 4.59 0 0 0-2.53-4.09zm20.67 33.1h2.1V65.16h3.27v-2.1h-5.36v28.27zm12.35-33.1a4.46 4.46 0 0 1 .48 2v34a4.63 4.63 0 0 1-4.56 4.56h-13.56v2.08h15.64a4.62 4.62 0 0 0 4.56-4.55v-34a4.59 4.59 0 0 0-2.56-4.09zm21.04-.47V98.8h-5.3v2.1h7.4V57.8h-2.08zm32.88 0V98.8h-5.9l.6 2.1h7.4V57.8h-2.1zM231.3 79.95V98.8H226v2.1h7.4V87.2l-2.1-7.24zM263.58 83h6.1v-2.13h-8.2a4.44 4.44 0 0 1-2-.48 4.52 4.52 0 0 0 4.08 2.61zm2.82 2.73l-2.1.48v5.13h2.1v-5.6zm10.26-27.48a4.6 4.6 0 0 1 .48 2V69l-5.37 1.25v2.56l7.45-1.72v-8.77a4.59 4.59 0 0 0-2.56-4.07zm0 17.8a4.56 4.56 0 0 1 .48 2v16.18a4.63 4.63 0 0 1-4.56 4.56h-11.1a4.42 4.42 0 0 1-2-.48 4.54 4.54 0 0 0 4.07 2.56h11.08a4.63 4.63 0 0 0 4.56-4.55v-16.2a4.59 4.59 0 0 0-2.54-4.07zm-12.34-12.98v10.4h2.1v-8.32h3.27v-2.1h-5.36zM298 80.87h-.68V98.8h-5.3v2.1h7.4V85.35l-1.4-4.48zm15.15-23.1h-2.75l-6.23 19.4 6.9 21.6h-6l.58 1.84.06.25h7.45l-6.9-21.62 6.9-21.5zm17.38 0V98.8h-5.3v2.1h7.38V57.8h-2.08z"/>
    <path fill="#fff" d="M167.9 123.85h1.4c5.43.27 9.68 1.72 12.4 4.72 2.74-3 7-4.46 12.46-4.72h1.34c12.1.82 17.63 9.5 27.3 13.2a11.07 11.07 0 0 0 4.78 1c2.48-.27 4.06-2.78 3.74-5.6-.34-3-3.27-5.6-6.56-4.17a4.46 4.46 0 0 0-1.17.8c-.25.23-.53.83-1.16.6-.6-.5 0-1.22.3-1.65a6 6 0 0 1 6.07-3c5.63.4 10.67 5.34 9.8 12.82-1.92 11.2-12.1 14.15-24.17 15.22h-3.92A48.36 48.36 0 0 1 181.76 142a49.06 49.06 0 0 1-28.89 11.05H149c-12.16-1.07-22.44-4-24.23-15.46-.68-8.16 4.18-12.18 9.8-12.58a6.13 6.13 0 0 1 6.14 3c.28.46.8 1.16.3 1.72-.6.1-.9-.37-1.17-.62a4 4 0 0 0-2.82-1.23c-3.86-.14-6.08 4.16-4.54 7.6a4.33 4.33 0 0 0 3.37 2.52 11.77 11.77 0 0 0 4.79-1 23.93 23.93 0 0 0 3.86-1.91c7.37-4.3 13.12-10.34 23.38-11.25z"/>
    <path fill="#636466" d="M361.64 82.913l5.712-5.714 2.086 2.086L363.726 85zM9.667 82.95l5.713-5.713 2.086 2.086-5.713 5.713z"/>
    <path fill="#fff" d="M55.65 69A4.5 4.5 0 0 1 54 72.48a5.19 5.19 0 0 1 1.66 3.69v14.1a4.62 4.62 0 0 1-4.56 4.56H35.45v-43.1H51.1a4.59 4.59 0 0 1 4.56 4.56V69zm-7.45-9.9h-5.36v10.4h5.36zm0 17.8h-5.36v10.47h5.36zm35.9-25.18a4.59 4.59 0 0 1 4.56 4.56v34a4.62 4.62 0 0 1-4.56 4.55H73a4.58 4.58 0 0 1-4.56-4.55v-34A4.55 4.55 0 0 1 73 51.72zm-2.9 7.4h-5.36V87.4h5.36zm33.5 35.7l-3-17.92h-2.83v17.92h-7.4v-43.1h15.64a4.54 4.54 0 0 1 4.5 4.56v16.14a4.47 4.47 0 0 1-2.63 4.06l3.08 18.35zm-.5-35.72h-5.36v10.4h5.36zm34.94-7.4a4.59 4.59 0 0 1 4.56 4.56v34a4.62 4.62 0 0 1-4.56 4.55h-11.08a4.58 4.58 0 0 1-4.56-4.55v-34a4.55 4.55 0 0 1 4.56-4.56zm-2.9 7.4h-5.36v28.3h5.36zm35.9-7.38a4.59 4.59 0 0 1 4.56 4.56v34a4.62 4.62 0 0 1-4.56 4.55H166.5v-43.1zm-2.9 7.4h-5.36V87.4h5.36zm20.65-7.4h7.4v43.1h-7.4zm40.27 0v43.1h-7.4L227.36 76v18.83H220v-43.1h7.32l5.42 17.68V51.7zm28.45 17.8a4.59 4.59 0 0 1 4.56 4.56v16.2a4.63 4.63 0 0 1-4.56 4.55h-11.08a4.58 4.58 0 0 1-4.54-4.55V81.4l7.4-1.73v7.7h5.36V76.9h-8.2a4.55 4.55 0 0 1-4.56-4.56V56.28a4.55 4.55 0 0 1 4.56-4.56h11.08a4.6 4.6 0 0 1 4.56 4.56V65l-7.45 1.72v-7.6h-5.36v10.4zm31.6 3.7l6.9 21.6h-7.45l-.06-.24-5.54-17.68h-.68v17.92H286v-43.1h7.4v17.8h.55l5.67-17.8h7.5zm18.98-21.5h7.4v43.1h-7.4z"/>
</svg>
