<svg xmlns="http://www.w3.org/2000/svg" viewBox="0 0 226 30">
    <path fill="#fff" d="M-.003 13.175L3.5 9.682l3.493 3.493L3.5 16.668zm215.127.007l3.493-3.493 3.493 3.493-3.493 3.493z"/>
    <path fill="#636466" d="M28.6 13.3h1.28V8.2h2V6.94H28.6v6.36zm9.1.93V6.48A2.81 2.81 0 0 0 36.14 4a2.77 2.77 0 0 1 .29 1.21V13a2.69 2.69 0 0 1-1 2.14 3.17 3.17 0 0 1 1 2.26V26a2.83 2.83 0 0 1-2.78 2.79h-8.3V30h9.56a2.84 2.84 0 0 0 2.79-2.79v-8.57a3.2 3.2 0 0 0-1-2.26 2.74 2.74 0 0 0 1-2.15zm-9.1 9.97h1.28v-5.1h2v-1.3H28.6v6.4zm20.18 0h1.27v-16h2V6.94h-3.27V24.2zM56.3 4a2.64 2.64 0 0 1 .3 1.21V26a2.83 2.83 0 0 1-2.79 2.79h-6.77a2.78 2.78 0 0 1-1.22-.3 2.79 2.79 0 0 0 2.5 1.51h6.77a2.83 2.83 0 0 0 2.79-2.79V6.48A2.79 2.79 0 0 0 56.31 4zm12.65 9.3h1.28V8.2h2V6.94h-3.28v6.36zm7.5 5.52A2.72 2.72 0 0 0 78 16.34V6.48A2.8 2.8 0 0 0 76.45 4a2.87 2.87 0 0 1 .3 1.24v9.86a2.73 2.73 0 0 1-1.59 2.48l1.9 11.22H73.6l.2 1.2h4.52zM70.7 17.8h-1.74v10.96H65.7v1.27h4.52V19.1h.67l-.2-1.28zm17.83 6.4h1.27v-16h2V6.94h-3.27V24.2zM96.06 4a2.64 2.64 0 0 1 .3 1.21V26a2.83 2.83 0 0 1-2.79 2.79H86.8a2.77 2.77 0 0 1-1.21-.3A2.79 2.79 0 0 0 88.07 30h6.77a2.83 2.83 0 0 0 2.79-2.79V6.48A2.79 2.79 0 0 0 96.06 4zm12.64 20.2h1.28v-16h2V6.94h-3.28V24.2zM116.24 4a2.77 2.77 0 0 1 .29 1.21V26a2.83 2.83 0 0 1-2.78 2.79h-8.3V30H115a2.83 2.83 0 0 0 2.78-2.79V6.48A2.8 2.8 0 0 0 116.24 4zm12.86-.3v25.08h-3.24v1.27h4.52V3.7h-1.28zm20.1 0v25.08h-3.6l.36 1.27h4.52V3.7h-1.27zm-7.82 13.55v11.52h-3.25v1.27h4.52v-8.36l-1.27-4.43zm19.72 1.85h3.74v-1.3h-5a2.64 2.64 0 0 1-1.22-.29 2.76 2.76 0 0 0 2.48 1.57zm1.72 1.68l-1.27.3v3.13h1.27v-3.43zM169.1 4a2.77 2.77 0 0 1 .29 1.21v5.35l-3.28.76v1.57l4.55-1.06V6.48A2.8 2.8 0 0 0 169.09 4zm0 10.87a2.77 2.77 0 0 1 .29 1.21V26a2.83 2.83 0 0 1-2.79 2.79h-6.77a2.71 2.71 0 0 1-1.21-.3A2.77 2.77 0 0 0 161.1 30h6.78a2.83 2.83 0 0 0 2.78-2.79v-9.9a2.78 2.78 0 0 0-1.56-2.44zm-7.55-7.93v6.36h1.27V8.2h2V6.94h-3.28zm20.6 10.86h-.4v10.96h-3.25v1.27h4.5v-9.5l-.86-2.74zm9.26-14.1h-1.68l-3.8 11.86 4.2 13.22h-3.67l.35 1.12.04.15h4.55l-4.2-13.2 4.2-13.14zm10.62 0v25.08h-3.25v1.27h4.52V3.7h-1.27zm19.025 15.386l3.492-3.494 1.273 1.273-3.492 3.494zM5.92 19.085l3.493-3.493 1.273 1.273-3.493 3.493z"/>
    <path fill="#fff" d="M34 10.54a2.75 2.75 0 0 1-1 2.15 3.16 3.16 0 0 1 1 2.25v8.62a2.83 2.83 0 0 1-2.78 2.79h-9.55V0h9.56A2.8 2.8 0 0 1 34 2.79zm-4.55-6h-3.27v6.36h3.28zm0 10.88h-3.27v6.4h3.28zM51.4 0a2.8 2.8 0 0 1 2.79 2.79v20.77a2.83 2.83 0 0 1-2.79 2.79h-6.77a2.8 2.8 0 0 1-2.79-2.79V2.8A2.78 2.78 0 0 1 44.63 0zm-1.77 4.52h-3.27V21.8h3.27zM70.1 26.35l-1.85-11h-1.73v11H62V0h9.56a2.78 2.78 0 0 1 2.75 2.79v9.86a2.74 2.74 0 0 1-1.58 2.48l1.88 11.22zm-.3-21.83h-3.28v6.36h3.28zM91.15 0a2.8 2.8 0 0 1 2.79 2.79v20.77a2.83 2.83 0 0 1-2.79 2.79h-6.77a2.8 2.8 0 0 1-2.79-2.79V2.8A2.78 2.78 0 0 1 84.38 0zm-1.77 4.52H86.1V21.8h3.27zM111.33 0a2.8 2.8 0 0 1 2.78 2.79v20.77a2.83 2.83 0 0 1-2.78 2.79h-9.56V0zm-1.77 4.52h-3.28V21.8h3.28zM122.17 0h4.52v26.35h-4.52zm24.6 0v26.35h-4.5L139 14.83v11.52h-4.52V0h4.48l3.3 10.8V0zm17.4 10.88a2.8 2.8 0 0 1 2.82 2.78v9.9a2.83 2.83 0 0 1-2.78 2.79h-6.82a2.8 2.8 0 0 1-2.78-2.79v-5.42l4.5-1.05v4.7h3.28v-6.4h-5a2.77 2.77 0 0 1-2.78-2.78V2.8a2.78 2.78 0 0 1 .807-1.969A2.78 2.78 0 0 1 157.4 0h6.77A2.8 2.8 0 0 1 167 2.79v5.34l-4.56 1v-4.6h-3.27v6.36zm19.3 2.26l4.22 13.2h-4.55v-.15l-3.4-10.8h-.4v11h-4.52V0h4.52v10.88h.34L183.1 0h4.6zM195.08 0h4.52v26.35h-4.52z"/>
</svg>
