<?xml version="1.0" standalone="no"?>
<!DOCTYPE svg PUBLIC "-//W3C//DTD SVG 20010904//EN"
 "http://www.w3.org/TR/2001/REC-SVG-20010904/DTD/svg10.dtd">
<svg version="1.0" xmlns="http://www.w3.org/2000/svg"
 width="337.000000pt" height="337.000000pt" viewBox="0 0 337.000000 337.000000"
 preserveAspectRatio="xMidYMid meet">
<metadata>
Created by potrace 1.11, written by Peter Selinger 2001-2013
</metadata>
<g transform="translate(0.000000,337.000000) scale(0.100000,-0.100000)"
fill="#000000" stroke="none">
<path d="M0 2533 l0 -836 25 23 26 24 25 -25 25 -25 -26 -24 -25 -23 -25 23
-25 23 0 -846 0 -847 1675 0 1675 0 0 1685 0 1685 -1675 0 -1675 0 0 -837z
m1130 -188 c16 -19 5 -62 -19 -77 -17 -11 -18 -14 -4 -35 46 -69 -60 -159
-146 -123 -52 21 -74 109 -35 141 20 16 28 5 15 -19 -13 -25 -14 -72 -2 -72 5
0 29 35 52 78 64 114 106 147 139 107z m396 -30 c-20 -31 -20 -32 4 -38 25 -7
25 -27 0 -77 -32 -64 8 -45 49 23 26 43 54 61 81 52 45 -14 6 -89 -50 -97 -32
-4 -41 -38 -10 -38 12 0 30 4 40 10 29 16 84 91 86 119 3 41 4 41 12 41 4 0
16 -19 26 -41 19 -41 19 -42 -2 -85 -41 -84 10 -48 106 75 24 31 44 21 32 -17
-4 -15 -11 -42 -14 -61 -6 -33 -5 -33 12 -18 10 10 38 53 63 97 30 54 50 80
62 80 17 0 17 -2 -3 -35 l-22 -36 26 7 c40 10 42 -18 6 -81 -54 -94 12 -59 69
38 26 43 64 58 89 33 17 -16 16 -18 -13 -90 -16 -36 31 1 59 47 21 36 32 45
62 50 63 10 69 -8 28 -79 -28 -48 -23 -56 13 -22 20 18 23 19 23 5 0 -10 -15
-26 -32 -37 -40 -24 -98 -27 -98 -5 0 9 7 15 15 13 18 -3 74 86 63 98 -13 12
-37 -17 -89 -107 -28 -49 -58 -89 -65 -89 -19 0 -18 5 12 56 27 46 18 59 -22
29 -25 -19 -71 -19 -82 1 -8 14 -10 14 -21 0 -15 -18 -56 -21 -66 -6 -3 5 6
32 20 61 15 28 24 54 21 57 -10 9 -46 -30 -74 -80 l-26 -47 -55 2 c-35 1 -56
7 -59 16 -3 9 1 11 16 7 23 -8 42 17 42 52 0 15 -11 8 -49 -29 -72 -73 -128
-61 -82 16 36 62 23 61 -37 -3 -51 -55 -62 -62 -95 -62 -24 0 -40 5 -43 15 -8
19 -35 19 -60 0 -23 -17 -66 -19 -81 -4 -8 8 -17 8 -31 0 -30 -16 -62 -14 -62
4 0 9 9 34 21 56 23 46 17 66 -8 28 -9 -13 -33 -41 -53 -61 -35 -35 -39 -37
-100 -35 -35 1 -65 7 -67 12 -6 19 61 119 90 135 26 14 29 14 47 -10 18 -24
18 -25 -7 -68 -14 -23 -23 -45 -21 -48 21 -20 121 99 112 133 -8 29 14 39 26
11 5 -13 16 -31 22 -41 11 -14 9 -24 -10 -58 -13 -22 -21 -43 -18 -46 14 -14
59 34 103 112 33 59 54 85 67 85 17 0 17 -1 2 -25z m-1031 -441 c13 -14 16
-31 11 -88 -2 -39 -5 -75 -5 -81 0 -5 2 -44 5 -86 9 -113 3 -119 -101 -119
l-85 0 0 195 0 195 79 0 c61 0 84 -4 96 -16z m295 6 c12 -7 16 -40 18 -167 2
-94 -1 -169 -7 -186 -10 -26 -13 -27 -84 -27 -43 0 -78 5 -85 12 -17 17 -17
349 0 366 14 14 136 16 158 2z m300 0 c23 -14 27 -162 6 -194 -15 -24 -13 -60
10 -164 4 -21 2 -23 -33 -20 l-38 3 -10 74 c-14 106 -35 107 -35 2 l0 -81 -35
0 -35 0 0 195 0 195 78 0 c42 0 84 -5 92 -10z m300 -9 c6 -11 10 -87 10 -176
0 -89 -4 -165 -10 -176 -9 -16 -22 -19 -83 -19 -44 0 -78 5 -85 12 -15 15 -17
330 -2 359 9 16 22 19 85 19 63 0 76 -3 85 -19z m290 9 c12 -7 16 -40 18 -167
2 -94 -1 -169 -7 -186 -10 -27 -12 -27 -96 -27 l-85 0 0 195 0 195 78 0 c42 0
84 -5 92 -10z m200 -185 l0 -195 -35 0 -35 0 0 195 0 195 35 0 35 0 0 -195z
m206 127 l22 -67 1 68 1 67 35 0 35 0 0 -194 0 -194 -34 -4 -35 -4 -18 71 -18
70 -3 -67 -3 -68 -34 0 -35 0 0 195 0 195 33 0 c31 0 33 -3 53 -68z m382 56
c7 -7 12 -33 12 -60 0 -45 -2 -48 -32 -56 -32 -8 -33 -7 -36 25 -2 25 -8 33
-23 33 -16 0 -19 -7 -19 -45 l0 -45 43 0 c24 0 48 -5 55 -12 18 -18 16 -192
-2 -207 -9 -7 -42 -11 -88 -9 l-73 3 -3 54 c-3 58 5 71 46 71 18 0 22 -6 22
-30 0 -23 4 -30 20 -30 17 0 20 7 20 45 l0 45 -43 0 c-24 0 -48 5 -55 12 -8 8
-12 46 -12 103 0 57 4 95 12 103 7 7 40 12 78 12 38 0 71 -5 78 -12z m194 -70
l3 -83 28 83 c28 81 29 82 62 82 l33 0 -29 -90 c-16 -50 -29 -97 -29 -105 0
-8 13 -56 29 -106 l29 -90 -36 3 c-35 3 -36 4 -61 83 l-26 80 -3 -82 -3 -83
-29 0 -30 0 0 195 0 195 30 0 29 0 3 -82z m308 -113 l0 -195 -35 0 -35 0 0
195 0 195 35 0 35 0 0 -195z m308 22 l22 -23 -28 -27 -28 -27 -24 25 -23 25
23 25 c29 31 31 31 58 2z m-1664 -502 c27 -14 34 -14 68 0 86 34 149 19 279
-65 65 -42 108 -50 129 -25 29 35 -21 93 -55 65 -18 -15 -20 1 -3 18 17 17 69
15 95 -3 13 -9 28 -33 34 -54 23 -77 -39 -149 -149 -172 -59 -12 -152 -8 -212
10 -20 6 -62 26 -93 45 l-57 35 -57 -35 c-78 -47 -123 -58 -228 -59 -76 0 -98
4 -139 25 -65 33 -91 69 -91 127 0 37 5 49 28 69 30 26 85 32 105 12 17 -17
15 -33 -3 -18 -33 27 -74 -15 -60 -61 6 -18 13 -21 46 -16 22 3 68 23 102 45
34 22 76 47 92 56 39 20 132 20 169 1z"/>
<path d="M1071 2314 c-34 -43 -25 -58 17 -28 12 8 22 21 22 29 0 26 -18 25
-39 -1z"/>
<path d="M999 2194 c-26 -46 -29 -58 -18 -65 18 -12 59 -2 82 18 31 29 17 103
-19 103 -7 0 -27 -25 -45 -56z"/>
<path d="M1487 2242 c-18 -20 -23 -62 -7 -62 10 0 40 52 40 70 0 16 -15 12
-33 -8z"/>
<path d="M2120 2213 c-33 -54 -37 -73 -15 -73 8 0 15 5 15 11 0 6 11 24 25 41
25 30 34 68 15 68 -5 0 -23 -21 -40 -47z"/>
<path d="M1177 2205 c-28 -47 -33 -65 -19 -65 11 0 46 39 61 67 31 60 -5 58
-42 -2z"/>
<path d="M1616 2228 c-18 -25 -20 -38 -7 -38 15 0 41 30 41 46 0 21 -17 17
-34 -8z"/>
<path d="M1440 2161 c0 -11 4 -21 9 -21 18 0 21 18 6 30 -13 10 -15 9 -15 -9z"/>
<path d="M390 1775 c0 -38 3 -45 20 -45 11 0 20 6 20 14 0 7 3 28 6 45 6 28 4
31 -20 31 -24 0 -26 -3 -26 -45z"/>
<path d="M390 1615 c0 -38 3 -45 20 -45 11 0 20 6 20 14 0 7 3 28 6 45 6 28 4
31 -20 31 -24 0 -26 -3 -26 -45z"/>
<path d="M690 1690 c0 -110 2 -130 15 -130 21 0 23 9 27 143 4 117 4 117 -19
117 -23 0 -23 -1 -23 -130z"/>
<path d="M990 1775 c0 -38 3 -45 20 -45 11 0 20 6 20 14 0 7 3 28 6 45 6 28 4
31 -20 31 -24 0 -26 -3 -26 -45z"/>
<path d="M1280 1690 c0 -110 2 -130 15 -130 21 0 23 9 27 143 4 117 4 117 -19
117 -23 0 -23 -1 -23 -130z"/>
<path d="M1580 1690 c0 -110 2 -130 15 -130 21 0 23 9 27 143 4 117 4 117 -19
117 -23 0 -23 -1 -23 -130z"/>
</g>
</svg>
